<?xml version="1.0" standalone="no"?>
<!DOCTYPE svg PUBLIC "-//W3C//DTD SVG 20010904//EN"
 "http://www.w3.org/TR/2001/REC-SVG-20010904/DTD/svg10.dtd">
<svg version="1.0" xmlns="http://www.w3.org/2000/svg"
 width="667.000000pt" height="257.000000pt" viewBox="0 0 667.000000 257.000000"
 preserveAspectRatio="xMidYMid meet">

<g transform="translate(0.000000,257.000000) scale(0.100000,-0.100000)"
fill="#297169" stroke="none">
<path d="M2797 2426 c-21 -8 -47 -22 -58 -32 -18 -16 -24 -16 -52 -5 -98 40
-113 43 -202 39 -70 -3 -102 -10 -145 -30 -153 -71 -240 -228 -219 -394 25
-196 239 -347 445 -314 68 11 145 44 201 86 23 18 39 23 58 18 31 -8 106 47
190 138 62 67 86 108 110 192 36 124 -23 253 -139 300 -47 19 -137 20 -189 2z
m103 -111 c0 -8 16 -22 36 -31 29 -14 35 -22 32 -43 -3 -28 -41 -42 -61 -22
-12 12 -60 15 -70 5 -15 -15 9 -33 53 -39 60 -8 90 -32 90 -71 0 -49 -10 -70
-41 -88 -16 -10 -29 -26 -29 -37 0 -14 -7 -19 -30 -19 -23 0 -30 5 -30 19 0
13 -11 23 -34 31 -37 12 -50 32 -41 61 8 23 47 25 65 4 16 -19 54 -19 70 0 15
19 5 35 -24 35 -64 0 -116 42 -116 93 0 28 35 77 55 77 7 0 15 9 18 20 6 24
57 29 57 5z m-287 -151 c3 -43 14 -83 31 -116 14 -27 26 -58 26 -69 0 -10 -17
-34 -37 -53 -105 -97 -125 -107 -166 -84 -13 7 -44 24 -68 37 -24 13 -52 31
-62 40 -84 74 -107 113 -107 181 0 53 11 73 56 100 49 31 128 24 160 -14 27
-31 38 -32 56 -8 20 27 60 52 84 52 19 0 22 -7 27 -66z"/>
<path d="M4435 2081 c-55 -25 -85 -61 -100 -119 -43 -165 113 -288 268 -213
64 31 97 87 97 165 0 31 -6 69 -14 84 -46 88 -159 125 -251 83z"/>
<path d="M420 2020 c-18 -5 -40 -16 -47 -26 -10 -14 -13 -150 -13 -665 l0
-648 27 -21 c26 -20 37 -22 141 -18 154 4 152 2 152 193 0 79 3 151 6 160 13
33 59 45 171 45 179 0 288 41 392 149 177 183 184 496 15 676 -77 82 -156 124
-278 150 -82 16 -500 20 -566 5z m534 -324 c130 -54 141 -235 20 -314 -30 -19
-47 -22 -143 -22 -106 0 -110 1 -130 26 -19 24 -21 40 -21 151 0 118 1 125 25
148 22 23 32 25 120 25 60 0 108 -5 129 -14z"/>
<path d="M5244 2015 c-106 -23 -187 -78 -243 -162 -37 -55 -71 -159 -71 -213
0 -41 -26 -70 -62 -70 -35 0 -48 -39 -48 -145 0 -115 9 -137 66 -155 22 -8 39
-21 45 -37 5 -13 9 -143 9 -287 0 -324 -12 -301 161 -301 100 0 121 3 136 18
16 16 19 46 23 293 5 258 6 277 24 290 14 10 51 14 132 14 l111 0 107 -226
c144 -301 169 -362 162 -389 -3 -12 -40 -102 -81 -199 -41 -97 -75 -187 -75
-200 0 -13 9 -34 19 -47 18 -22 28 -24 129 -27 102 -3 110 -2 135 20 17 15 58
99 121 248 52 124 173 411 270 638 97 227 176 421 176 432 0 11 -9 29 -20 40
-18 18 -33 20 -141 20 -66 0 -129 -4 -139 -10 -11 -6 -51 -87 -99 -202 -91
-215 -105 -243 -121 -243 -11 0 -112 214 -171 360 -40 98 -32 95 -279 95 -179
0 -219 3 -238 16 -30 21 -28 61 5 96 25 27 31 28 119 28 174 0 184 9 184 168
0 144 -2 146 -162 149 -75 1 -147 -3 -184 -12z"/>
<path d="M1540 2000 c-20 -20 -20 -33 -20 -664 0 -619 1 -645 19 -667 18 -23
25 -24 134 -24 99 0 118 3 136 19 21 19 21 21 21 672 l0 653 -22 15 c-17 12
-49 16 -135 16 -100 0 -115 -2 -133 -20z"/>
<path d="M2141 1645 c-47 -44 -102 -134 -114 -185 -3 -14 -7 -183 -8 -376 -3
-342 -2 -351 18 -385 44 -70 36 -69 472 -69 432 0 439 1 482 61 l24 34 0 350
c0 272 -3 361 -14 399 -19 66 -90 159 -146 191 -42 25 -47 26 -63 12 -10 -9
-48 -30 -86 -48 -57 -27 -84 -33 -161 -37 -114 -6 -177 8 -272 59 -40 21 -75
39 -78 39 -3 0 -28 -20 -54 -45z m745 -258 l24 -28 0 -291 c0 -286 0 -292 -22
-315 l-21 -23 -347 0 -347 0 -27 25 -26 24 0 294 c0 292 0 294 23 314 12 11
29 23 37 25 8 3 165 4 348 4 l334 -1 24 -28z"/>
<path d="M2267 1293 c-4 -3 -7 -39 -7 -79 0 -62 3 -75 19 -84 27 -14 144 -13
159 2 12 12 17 124 6 152 -5 13 -23 16 -88 16 -46 0 -86 -3 -89 -7z"/>
<path d="M2586 1285 c-3 -9 -6 -45 -6 -80 0 -53 3 -66 19 -75 25 -13 112 -13
146 0 25 10 26 12 23 87 l-3 78 -86 3 c-72 2 -88 0 -93 -13z"/>
<path d="M2283 1020 c-21 -8 -23 -16 -23 -74 0 -96 0 -96 89 -96 47 0 82 5 89
12 15 15 16 144 1 154 -19 11 -133 15 -156 4z"/>
<path d="M2615 1022 c-29 -6 -35 -20 -35 -88 0 -42 5 -65 15 -74 22 -18 157
-14 171 5 16 21 17 117 2 136 -13 17 -111 30 -153 21z"/>
<path d="M3609 1669 c-176 -18 -320 -132 -384 -303 -24 -64 -25 -74 -27 -372
l-3 -306 29 -25 c28 -24 34 -25 137 -21 158 5 147 -19 151 316 3 252 5 280 22
308 44 69 155 96 232 55 67 -36 68 -44 74 -358 4 -253 7 -284 23 -300 14 -15
39 -19 130 -21 103 -4 114 -2 140 18 l27 21 0 297 c0 164 -5 317 -11 341 -11
51 -58 151 -71 151 -4 0 -8 6 -8 13 0 18 -65 79 -124 116 -96 60 -208 83 -337
70z"/>
<path d="M4390 1550 c-19 -19 -20 -33 -20 -444 0 -366 2 -427 15 -440 20 -20
88 -29 181 -24 122 6 114 -28 114 467 l0 418 -23 21 c-21 20 -34 22 -135 22
-99 0 -114 -2 -132 -20z"/>
</g>
</svg>
